<?xml version="1.0" encoding="UTF-8"?>
<svg xmlns="http://www.w3.org/2000/svg" width="1000" height="1000" viewBox="0 0 1000 1000"><path d="M969.522,262.588a123.137,123.137,0,0,0-86.642-87.2C806.455,154.773,500,154.773,500,154.773s-306.454,0-382.88,20.611a123.138,123.138,0,0,0-86.642,87.2C10,339.51,10,500,10,500s0,160.49,20.478,237.412a123.14,123.14,0,0,0,86.642,87.2C193.546,845.227,500,845.227,500,845.227s306.455,0,382.88-20.611a123.138,123.138,0,0,0,86.642-87.2C990,660.49,990,500,990,500S990,339.51,969.522,262.588ZM399.773,645.713V354.287L655.909,500Z"/></svg>
