<?xml version="1.0" encoding="UTF-8"?>
<svg xmlns="http://www.w3.org/2000/svg" viewBox="0 0 24 24">
  <path d="M11.152,11.214c1.264-.345,2.183-.849,2.764-1.523.578-.665.865-1.567.865-2.703,0-.899-.197-1.694-.577-2.381-.39-.683-.952-1.23-1.689-1.639-.645-.355-1.412-.605-2.305-.753-.898-.143-2.47-.215-4.725-.215H0v20h5.65c2.27,0,3.907-.08,4.908-.232,1-.157,1.839-.422,2.518-.784.84-.443,1.481-1.074,1.928-1.885.45-.813.674-1.751.674-2.823,0-1.483-.4-2.675-1.199-3.564-.797-.891-1.905-1.391-3.327-1.499ZM5.064,6.434h1.171c1.353,0,2.262.153,2.731.457.463.306.699.833.699,1.584,0,.723-.251,1.232-.748,1.531-.503.293-1.421.441-2.764.441h-1.088v-4.013ZM9.707,17.903c-.533.327-1.45.488-2.738.488h-1.905v-4.37h1.987c1.322,0,2.237.166,2.723.499.494.332.737.919.737,1.762,0,.754-.266,1.296-.804,1.621ZM24,19.466c0,1.4-1.135,2.534-2.533,2.534s-2.534-1.134-2.534-2.534,1.134-2.533,2.534-2.533,2.533,1.133,2.533,2.533ZM23.667,15.333h-4.4V2h4.4v13.333Z"/>
</svg>
