<?xml version="1.0" encoding="UTF-8"?>
<svg xmlns="http://www.w3.org/2000/svg" viewBox="0 0 24 24">
  <path d="M24,12s0,3.93-.502,5.814c-.276,1.039-1.089,1.858-2.122,2.136-1.872.505-9.377.505-9.377.505,0,0-7.505,0-9.377-.505-1.033-.278-1.846-1.096-2.122-2.136-.502-1.884-.502-5.814-.502-5.814,0,0,0-3.93.502-5.814.276-1.039,1.089-1.858,2.122-2.136,1.872-.505,9.377-.505,9.377-.505,0,0,7.505,0,9.377.505,1.033.278,1.846,1.096,2.122,2.136.502,1.884.502,5.814.502,5.814Z"/>
  <path d="M9.545,8.432l6.273,3.569-6.273,3.568v-7.137Z" style="fill: #fff;"/>
</svg>
