<?xml version="1.0" encoding="UTF-8"?>
<svg xmlns="http://www.w3.org/2000/svg" viewBox="0 0 24 24">
  <path d="M23.998,10.304C23.998,4.935,18.614.566,11.997.566S-.002,4.935-.002,10.304C-.002,15.118,4.267,19.15,10.033,19.912c.391.084.923.258,1.057.592.121.303.079.779.039,1.085,0,0-.141.847-.171,1.027-.052.303-.241,1.186,1.039.647,1.281-.54,6.911-4.069,9.428-6.967h0c1.739-1.907,2.572-3.843,2.572-5.992ZM7.764,13.176c0,.126-.103.229-.229.229h-3.371c-.127,0-.229-.103-.229-.229v-.004h0v-5.233c0-.127.103-.229.229-.229h.851c.126,0,.229.103.229.229v4.157h2.291c.126,0,.229.103.229.229v.851ZM9.793,13.176c0,.126-.103.229-.229.229h-.851c-.127,0-.229-.103-.229-.229v-5.237c0-.127.103-.229.229-.229h.851c.127,0,.229.103.229.229v5.237ZM15.587,13.176c0,.126-.103.229-.229.229h-.846c-.021,0-.041-.003-.06-.008-.001,0-.002,0-.003,0-.005-.001-.011-.003-.016-.005-.002,0-.005-.002-.007-.003-.004-.001-.008-.003-.011-.005-.004-.002-.008-.003-.011-.005-.002-.001-.005-.002-.007-.004-.005-.003-.01-.006-.014-.009,0,0-.002-.001-.003-.002-.023-.015-.043-.034-.059-.058l-2.399-3.24v3.11c0,.126-.103.229-.229.229h-.851c-.127,0-.229-.103-.229-.229v-5.237c0-.127.103-.229.229-.229h.846s.005,0,.008,0c.004,0,.008,0,.012,0,.004,0,.008,0,.012.001.003,0,.006,0,.01.001.005,0,.009.002.014.003.003,0,.005.001.008.002.005.001.009.003.014.004.002,0,.005.002.007.003.005.002.009.004.014.006.002.001.005.002.007.004.004.002.008.004.012.007.002.001.005.003.007.004.004.003.008.005.012.008.002.002.004.003.006.005.004.003.008.007.012.011.001.001.003.003.004.004.005.004.01.009.014.014,0,0,0,.001.001.002.007.008.013.015.018.024l2.396,3.236v-3.111c0-.127.103-.229.229-.229h.851c.126,0,.229.103.229.229v5.237ZM20.234,8.79c0,.127-.103.229-.229.229h-2.291v.884h2.291c.126,0,.229.103.229.229v.851c0,.126-.103.229-.229.229h-2.291v.884h2.291c.126,0,.229.103.229.229v.851c0,.126-.103.229-.229.229h-3.371c-.126,0-.229-.103-.229-.229v-.004h0v-5.228h0v-.005c0-.127.103-.229.229-.229h3.371c.126,0,.229.103.229.229v.851Z"/>
</svg>
